<svg width="16" height="16" viewBox="0 0 16 16" fill="none" xmlns="http://www.w3.org/2000/svg">
<path fill-rule="evenodd" clip-rule="evenodd" d="M3.31049 3.35581C4.64686 3.22085 5.98338 3.15335 7.32001 3.15335C9.56359 3.15335 11.8134 3.26754 14.0493 3.48912C14.3241 3.51635 14.5248 3.7612 14.4976 4.03599C14.4703 4.31079 14.2255 4.51148 13.9507 4.48425C11.7466 4.26583 9.52975 4.15335 7.32001 4.15335C6.01687 4.15335 4.71364 4.21916 3.41026 4.35082L3.40879 4.35097L2.04879 4.4843C1.77397 4.51124 1.52934 4.31029 1.50239 4.03547C1.47545 3.76064 1.6764 3.51601 1.95122 3.48907L3.31049 3.35581Z" fill="black"/>
<path fill-rule="evenodd" clip-rule="evenodd" d="M6.3064 2.52305L6.15977 3.39615C6.11403 3.66848 5.85619 3.85217 5.58386 3.80644C5.31154 3.7607 5.12784 3.50286 5.17358 3.23053L5.32025 2.3572C5.32281 2.34199 5.32545 2.32606 5.32812 2.30993C5.37402 2.03267 5.44137 1.62592 5.7125 1.31847C6.02854 0.960088 6.51074 0.833344 7.12667 0.833344H8.87334C9.49677 0.833344 9.97849 0.970276 10.2926 1.33231C10.5641 1.64518 10.6298 2.05338 10.6737 2.32595C10.6758 2.33921 10.6779 2.35215 10.6799 2.36475L10.8263 3.22991C10.8724 3.50219 10.689 3.76026 10.4168 3.80633C10.1445 3.85241 9.88643 3.66904 9.84035 3.39677L9.69318 2.52714C9.63742 2.18512 9.60214 2.06236 9.53737 1.98771C9.50153 1.94641 9.37658 1.83334 8.87334 1.83334H7.12667C6.61594 1.83334 6.49481 1.94327 6.46252 1.97988C6.40111 2.04952 6.36645 2.16652 6.3064 2.52305Z" fill="black"/>
<path fill-rule="evenodd" clip-rule="evenodd" d="M12.5989 5.59438C12.8744 5.61217 13.0834 5.84998 13.0656 6.12555L12.6321 12.8416L12.6312 12.8543C12.6137 13.1051 12.5943 13.3809 12.5427 13.6376C12.4891 13.9037 12.3946 14.1845 12.2032 14.4337C11.8024 14.9555 11.1204 15.1667 10.14 15.1667H5.86C4.87963 15.1667 4.19759 14.9555 3.7968 14.4337C3.6054 14.1845 3.51094 13.9037 3.45735 13.6376C3.40566 13.3809 3.38634 13.1051 3.36878 12.8543L3.3677 12.8389L2.93438 6.12555C2.91659 5.84998 3.12556 5.61217 3.40113 5.59438C3.6767 5.57659 3.91451 5.78556 3.9323 6.06113L4.36545 12.7717C4.36548 12.7722 4.36551 12.7726 4.36554 12.7731C4.38436 13.0416 4.40028 13.2545 4.43766 13.4401C4.47407 13.6209 4.52461 13.7396 4.58987 13.8246C4.70242 13.9711 4.98038 14.1667 5.86 14.1667H10.14C11.0196 14.1667 11.2976 13.9711 11.4101 13.8246C11.4754 13.7396 11.5259 13.6209 11.5623 13.4401C11.5997 13.2545 11.6156 13.0416 11.6345 12.7731C11.6345 12.7726 11.6345 12.7722 11.6346 12.7717L12.0677 6.06113C12.0855 5.78556 12.3233 5.57659 12.5989 5.59438Z" fill="black"/>
<path fill-rule="evenodd" clip-rule="evenodd" d="M6.38666 11C6.38666 10.7239 6.61052 10.5 6.88666 10.5H9.10666C9.3828 10.5 9.60666 10.7239 9.60666 11C9.60666 11.2761 9.3828 11.5 9.10666 11.5H6.88666C6.61052 11.5 6.38666 11.2761 6.38666 11Z" fill="black"/>
<path fill-rule="evenodd" clip-rule="evenodd" d="M5.83334 8.33334C5.83334 8.0572 6.0572 7.83334 6.33334 7.83334H9.66668C9.94282 7.83334 10.1667 8.0572 10.1667 8.33334C10.1667 8.60949 9.94282 8.83334 9.66668 8.83334H6.33334C6.0572 8.83334 5.83334 8.60949 5.83334 8.33334Z" fill="black"/>
</svg>
