<svg width="16" height="16" viewBox="0 0 16 16" fill="none" xmlns="http://www.w3.org/2000/svg">
<path fill-rule="evenodd" clip-rule="evenodd" d="M10.3449 0.958202C11.1228 0.858738 11.9097 1.17682 12.7093 1.92918L12.7102 1.93005C13.5125 2.68878 13.8778 3.45844 13.823 4.24236C13.77 4.99986 13.3309 5.641 12.8301 6.17004M12.8301 6.17004L7.35951 11.9605C7.20529 12.1284 6.99762 12.2707 6.80076 12.3759C6.60137 12.4825 6.37072 12.5738 6.1542 12.6123L6.15087 12.6129L4.00497 12.9794C3.48459 13.0691 2.98559 12.9391 2.63012 12.602C2.27515 12.2653 2.11829 11.7744 2.1764 11.2514L2.17657 11.2499L2.42431 9.08057C2.45308 8.86477 2.53323 8.63125 2.6277 8.42867C2.72183 8.22682 2.85027 8.01279 3.00226 7.85099L3.00323 7.84996L8.47656 2.05662C8.97759 1.52737 9.59328 1.05432 10.3449 0.958202M9.20312 2.74374C9.20303 2.74382 9.2032 2.74365 9.20312 2.74374L3.7311 8.53567C3.73099 8.53579 3.73122 8.53555 3.7311 8.53567C3.67646 8.59398 3.60139 8.70681 3.53399 8.85132C3.46782 8.99322 3.42807 9.12449 3.41616 9.20887L3.17029 11.3619C3.17026 11.3621 3.17024 11.3623 3.17021 11.3626C3.14187 11.6192 3.22163 11.7847 3.31824 11.8764C3.41444 11.9676 3.5821 12.0375 3.83506 11.9939L3.83583 11.9938L5.98057 11.6275C6.06408 11.6124 6.19276 11.567 6.32927 11.4941C6.46765 11.4201 6.57176 11.3403 6.62387 11.2831L6.62984 11.2766L12.1032 5.48329C12.549 5.0124 12.7967 4.58329 12.8254 4.17263C12.8523 3.78832 12.6943 3.29149 12.0237 2.65713C11.3568 2.0298 10.8539 1.90127 10.4718 1.95013C10.0635 2.00233 9.64866 2.27315 9.20312 2.74374Z" fill="black"/>
<path fill-rule="evenodd" clip-rule="evenodd" d="M7.84971 2.87261C8.12256 2.8301 8.37821 3.01683 8.42072 3.28968C8.67213 4.90342 9.98182 6.1385 11.6101 6.3025C11.8849 6.33017 12.0852 6.57534 12.0575 6.85009C12.0298 7.12484 11.7847 7.32514 11.5099 7.29746C9.43154 7.08813 7.75455 5.50987 7.43264 3.44362C7.39013 3.17077 7.57686 2.91512 7.84971 2.87261Z" fill="black"/>
<path fill-rule="evenodd" clip-rule="evenodd" d="M1.5 14.6667C1.5 14.3905 1.72386 14.1667 2 14.1667H14C14.2761 14.1667 14.5 14.3905 14.5 14.6667C14.5 14.9428 14.2761 15.1667 14 15.1667H2C1.72386 15.1667 1.5 14.9428 1.5 14.6667Z" fill="black"/>
</svg>
